<svg width="11" height="12" viewBox="0 0 11 12" fill="none" xmlns="http://www.w3.org/2000/svg">
<path d="M3.95638 0.777344C6.08321 0.777344 7.80729 2.50146 7.80729 4.62826C7.80729 5.585 7.45834 6.46028 6.88082 7.13378L7.04132 7.29427H7.51107L10.4733 10.2565L9.58464 11.1452L6.6224 8.18294V7.71319L6.4619 7.5527C5.78841 8.13022 4.91313 8.47917 3.95638 8.47917C1.82958 8.47917 0.105469 6.75508 0.105469 4.62826C0.105469 2.50146 1.82958 0.777344 3.95638 0.777344ZM3.95638 1.96225C2.48398 1.96225 1.29036 3.15586 1.29036 4.62826C1.29036 6.10067 2.48398 7.29427 3.95638 7.29427C5.42879 7.29427 6.6224 6.10067 6.6224 4.62826C6.6224 3.15586 5.42879 1.96225 3.95638 1.96225Z" fill="#A9A5AF"/>
</svg>
